{"accessors" : [{"bufferView" : 0, "byteOffset" : 0, "componentType" : 5126, "count" : 21, "type" : "VEC3", "max" : [931, 530.0000000000001, 0], "min" : [29, 30.000000000000114, 0]}, {"bufferView" : 1, "byteOffset" : 0, "componentType" : 5123, "count" : 132, "type" : "SCALAR", "max" : [131], "min" : [0]}, {"bufferView" : 2, "byteOffset" : 0, "componentType" : 5126, "count" : 132, "type" : "VEC3", "max" : [930, 430.0491943359375, 110.80000305175781], "min" : [30, 130.0078887939453, 79.80361938476562], "name" : "POSITION"}, {"bufferView" : 2, "byteOffset" : 12, "componentType" : 5126, "count" : 132, "type" : "VEC3", "max" : [1.0000044107437134, 0.9999971389770508, 1.0000044107437134], "min" : [-1.0000044107437134, -1.0000020265579224, -1.0000044107437134], "name" : "NORMAL"}, {"bufferView" : 3, "byteOffset" : 0, "componentType" : 5126, "count" : 21, "type" : "VEC3", "max" : [169.00000000000864, 219.99999999979855, 0], "min" : [29.00000000000864, 149.99999999979855, 0]}, {"bufferView" : 4, "byteOffset" : 0, "componentType" : 5126, "count" : 21, "type" : "VEC3", "max" : [509.99999999997954, 219.99999999959687, 0], "min" : [449.99999999997954, 149.99999999959687, 0]}, {"bufferView" : 1, "byteOffset" : 264, "componentType" : 5123, "count" : 36, "type" : "SCALAR", "max" : [35], "min" : [0]}, {"bufferView" : 5, "byteOffset" : 0, "componentType" : 5126, "count" : 36, "type" : "VEC3", "max" : [169, 220, 71.80000305175781], "min" : [29, 150, 30], "name" : "POSITION"}, {"bufferView" : 5, "byteOffset" : 12, "componentType" : 5126, "count" : 36, "type" : "VEC3", "max" : [1.0000044107437134, 1.0000044107437134, 1.0000044107437134], "min" : [-1.0000044107437134, -1.0000044107437134, -1.0000044107437134], "name" : "NORMAL"}, {"bufferView" : 1, "byteOffset" : 336, "componentType" : 5123, "count" : 36, "type" : "SCALAR", "max" : [35], "min" : [0]}, {"bufferView" : 6, "byteOffset" : 0, "componentType" : 5126, "count" : 36, "type" : "VEC3", "max" : [510, 220, 67.80000305175781], "min" : [450, 150, 30], "name" : "POSITION"}, {"bufferView" : 6, "byteOffset" : 12, "componentType" : 5126, "count" : 36, "type" : "VEC3", "max" : [1.0000044107437134, 1.0000044107437134, 1.0000044107437134], "min" : [-1.0000044107437134, -1.0000044107437134, -1.0000044107437134], "name" : "NORMAL"}, {"bufferView" : 1, "byteOffset" : 408, "componentType" : 5123, "count" : 36, "type" : "SCALAR", "max" : [35], "min" : [0]}, {"bufferView" : 7, "byteOffset" : 0, "componentType" : 5126, "count" : 36, "type" : "VEC3", "max" : [931, 220, 71.80000305175781], "min" : [791, 150, 30], "name" : "POSITION"}, {"bufferView" : 7, "byteOffset" : 12, "componentType" : 5126, "count" : 36, "type" : "VEC3", "max" : [1.0000044107437134, 1.0000044107437134, 1.0000044107437134], "min" : [-1.0000044107437134, -1.0000044107437134, -1.0000044107437134], "name" : "NORMAL"}, {"bufferView" : 1, "byteOffset" : 480, "componentType" : 5123, "count" : 36, "type" : "SCALAR", "max" : [35], "min" : [0]}, {"bufferView" : 8, "byteOffset" : 0, "componentType" : 5126, "count" : 36, "type" : "VEC3", "max" : [169, 410, 71.80000305175781], "min" : [29, 340, 30], "name" : "POSITION"}, {"bufferView" : 8, "byteOffset" : 12, "componentType" : 5126, "count" : 36, "type" : "VEC3", "max" : [1.0000044107437134, 1.0000044107437134, 1.0000044107437134], "min" : [-1.0000044107437134, -1.0000044107437134, -1.0000044107437134], "name" : "NORMAL"}, {"bufferView" : 1, "byteOffset" : 552, "componentType" : 5123, "count" : 36, "type" : "SCALAR", "max" : [35], "min" : [0]}, {"bufferView" : 9, "byteOffset" : 0, "componentType" : 5126, "count" : 36, "type" : "VEC3", "max" : [510, 410, 67.80000305175781], "min" : [450, 340, 30], "name" : "POSITION"}, {"bufferView" : 9, "byteOffset" : 12, "componentType" : 5126, "count" : 36, "type" : "VEC3", "max" : [1.0000044107437134, 1.0000044107437134, 1.0000044107437134], "min" : [-1.0000044107437134, -1.0000044107437134, -1.0000044107437134], "name" : "NORMAL"}, {"bufferView" : 1, "byteOffset" : 624, "componentType" : 5123, "count" : 36, "type" : "SCALAR", "max" : [35], "min" : [0]}, {"bufferView" : 10, "byteOffset" : 0, "componentType" : 5126, "count" : 36, "type" : "VEC3", "max" : [931, 410, 71.80000305175781], "min" : [791, 340, 30], "name" : "POSITION"}, {"bufferView" : 10, "byteOffset" : 12, "componentType" : 5126, "count" : 36, "type" : "VEC3", "max" : [1.0000044107437134, 1.0000044107437134, 1.0000044107437134], "min" : [-1.0000044107437134, -1.0000044107437134, -1.0000044107437134], "name" : "NORMAL"}, {"bufferView" : 1, "byteOffset" : 696, "componentType" : 5123, "count" : 96, "type" : "SCALAR", "max" : [95], "min" : [0]}, {"bufferView" : 11, "byteOffset" : 0, "componentType" : 5126, "count" : 96, "type" : "VEC3", "max" : [960, 560, 110.80000305175781], "min" : [0, 1.1368683772161603E-13, -1.5258789289873675E-06], "name" : "POSITION"}, {"bufferView" : 11, "byteOffset" : 12, "componentType" : 5126, "count" : 96, "type" : "VEC3", "max" : [1.0000044107437134, 1.0000044107437134, 1.0000044107437134], "min" : [-1.0000044107437134, -1.0000044107437134, -1.0000044107437134], "name" : "NORMAL"}, {"bufferView" : 12, "byteOffset" : 0, "componentType" : 5126, "count" : 21, "type" : "VEC3", "max" : [931, 530.0000000000001, 0], "min" : [29, 30.000000000000114, 0]}, {"bufferView" : 1, "byteOffset" : 888, "componentType" : 5123, "count" : 36, "type" : "SCALAR", "max" : [35], "min" : [0]}, {"bufferView" : 13, "byteOffset" : 0, "componentType" : 5126, "count" : 36, "type" : "VEC3", "max" : [931, 530, 30], "min" : [29, 30, 0], "name" : "POSITION"}, {"bufferView" : 13, "byteOffset" : 12, "componentType" : 5126, "count" : 36, "type" : "VEC3", "max" : [1.0000044107437134, 1.0000044107437134, 1.0000044107437134], "min" : [-1.0000044107437134, -1.0000044107437134, -1.0000044107437134], "name" : "NORMAL"}], "asset" : {"generator" : "Aspose.3D 22.3", "version" : "2.0"}, "buffers" : [{"uri" : "data:application/octet-stream;base64,", "byteLength" : 13544}], "bufferViews" : [{"buffer" : 0, "byteOffset" : 0, "byteLength" : 252, "byteStride" : 12, "target" : 34962}, {"buffer" : 0, "byteOffset" : 256, "byteLength" : 960, "target" : 34963}, {"buffer" : 0, "byteOffset" : 1220, "byteLength" : 3168, "byteStride" : 24, "target" : 34962}, {"buffer" : 0, "byteOffset" : 4392, "byteLength" : 252, "byteStride" : 12, "target" : 34962}, {"buffer" : 0, "byteOffset" : 4648, "byteLength" : 252, "byteStride" : 12, "target" : 34962}, {"buffer" : 0, "byteOffset" : 4904, "byteLength" : 864, "byteStride" : 24, "target" : 34962}, {"buffer" : 0, "byteOffset" : 5772, "byteLength" : 864, "byteStride" : 24, "target" : 34962}, {"buffer" : 0, "byteOffset" : 6640, "byteLength" : 864, "byteStride" : 24, "target" : 34962}, {"buffer" : 0, "byteOffset" : 7508, "byteLength" : 864, "byteStride" : 24, "target" : 34962}, {"buffer" : 0, "byteOffset" : 8376, "byteLength" : 864, "byteStride" : 24, "target" : 34962}, {"buffer" : 0, "byteOffset" : 9244, "byteLength" : 864, "byteStride" : 24, "target" : 34962}, {"buffer" : 0, "byteOffset" : 10112, "byteLength" : 2304, "byteStride" : 24, "target" : 34962}, {"buffer" : 0, "byteOffset" : 12420, "byteLength" : 252, "byteStride" : 12, "target" : 34962}, {"buffer" : 0, "byteOffset" : 12676, "byteLength" : 864, "byteStride" : 24, "target" : 34962}], "cameras" : [{"perspective" : {"aspectRatio" : 1.3333333333333333, "yfov" : 0.43833943764363487, "zfar" : 2097.491052322628, "znear" : 1284.5317724369754}, "type" : "perspective", "name" : "Default Camera"}], "materials" : [{"name" : "Navisworks material", "pbrMetallicRoughness" : {"baseColorFactor" : [0.7607843279838562, 0.8078431487083435, 0.8392156958580017, 1], "metallicFactor" : 0, "roughnessFactor" : 0}, "emissiveFactor" : [0, 0, 0], "alphaMode" : "OPAQUE", "doubleSided" : false}, {"name" : "AutoCAD Color Index 9", "pbrMetallicRoughness" : {"baseColorFactor" : [0.753000020980835, 0.753000020980835, 0.753000020980835, 1], "metallicFactor" : 0, "roughnessFactor" : 0}, "emissiveFactor" : [0, 0, 0], "alphaMode" : "OPAQUE", "doubleSided" : false}, {"name" : "AutoCAD Color Index 150", "pbrMetallicRoughness" : {"baseColorFactor" : [0, 0.5, 1, 1], "metallicFactor" : 0, "roughnessFactor" : 0}, "emissiveFactor" : [0, 0, 0], "alphaMode" : "OPAQUE", "doubleSided" : false}, {"name" : "AutoCAD Color Index 150", "pbrMetallicRoughness" : {"baseColorFactor" : [0, 0.5, 1, 1], "metallicFactor" : 0, "roughnessFactor" : 0}, "emissiveFactor" : [0, 0, 0], "alphaMode" : "OPAQUE", "doubleSided" : false}, {"name" : "AutoCAD Color Index 150", "pbrMetallicRoughness" : {"baseColorFactor" : [0, 0.5, 1, 1], "metallicFactor" : 0, "roughnessFactor" : 0}, "emissiveFactor" : [0, 0, 0], "alphaMode" : "OPAQUE", "doubleSided" : false}, {"name" : "AutoCAD Color Index 150", "pbrMetallicRoughness" : {"baseColorFactor" : [0, 0.5, 1, 1], "metallicFactor" : 0, "roughnessFactor" : 0}, "emissiveFactor" : [0, 0, 0], "alphaMode" : "OPAQUE", "doubleSided" : false}, {"name" : "AutoCAD Color Index 150", "pbrMetallicRoughness" : {"baseColorFactor" : [0, 0.5, 1, 1], "metallicFactor" : 0, "roughnessFactor" : 0}, "emissiveFactor" : [0, 0, 0], "alphaMode" : "OPAQUE", "doubleSided" : false}, {"name" : "AutoCAD Color Index 150", "pbrMetallicRoughness" : {"baseColorFactor" : [0, 0.5, 1, 1], "metallicFactor" : 0, "roughnessFactor" : 0}, "emissiveFactor" : [0, 0, 0], "alphaMode" : "OPAQUE", "doubleSided" : false}, {"name" : "AutoCAD Color Index 150", "pbrMetallicRoughness" : {"baseColorFactor" : [0, 0.5, 1, 1], "metallicFactor" : 0, "roughnessFactor" : 0}, "emissiveFactor" : [0, 0, 0], "alphaMode" : "OPAQUE", "doubleSided" : false}, {"name" : "AutoCAD Color Index 150", "pbrMetallicRoughness" : {"baseColorFactor" : [0, 0.5, 1, 1], "metallicFactor" : 0, "roughnessFactor" : 0}, "emissiveFactor" : [0, 0, 0], "alphaMode" : "OPAQUE", "doubleSided" : false}, {"name" : "AutoCAD Color Index 150", "pbrMetallicRoughness" : {"baseColorFactor" : [0, 0.5, 1, 1], "metallicFactor" : 0, "roughnessFactor" : 0}, "emissiveFactor" : [0, 0, 0], "alphaMode" : "OPAQUE", "doubleSided" : false}, {"name" : "AutoCAD Color Index 150", "pbrMetallicRoughness" : {"baseColorFactor" : [0, 0.5, 1, 1], "metallicFactor" : 0, "roughnessFactor" : 0}, "emissiveFactor" : [0, 0, 0], "alphaMode" : "OPAQUE", "doubleSided" : false}, {"name" : "AutoCAD Color Index 150", "pbrMetallicRoughness" : {"baseColorFactor" : [0, 0.5, 1, 1], "metallicFactor" : 0, "roughnessFactor" : 0}, "emissiveFactor" : [0, 0, 0], "alphaMode" : "OPAQUE", "doubleSided" : false}], "meshes" : [{"primitives" : [{"attributes" : {"POSITION" : 0}, "material" : 0, "mode" : 3}], "name" : ""}, {"primitives" : [{"attributes" : {"POSITION" : 2, "NORMAL" : 3}, "indices" : 1, "material" : 1, "mode" : 4}], "name" : ""}, {"primitives" : [{"attributes" : {"POSITION" : 4}, "material" : 2, "mode" : 3}], "name" : ""}, {"primitives" : [{"attributes" : {"POSITION" : 5}, "material" : 3, "mode" : 3}], "name" : ""}, {"primitives" : [{"attributes" : {"POSITION" : 7, "NORMAL" : 8}, "indices" : 6, "material" : 4, "mode" : 4}], "name" : ""}, {"primitives" : [{"attributes" : {"POSITION" : 10, "NORMAL" : 11}, "indices" : 9, "material" : 5, "mode" : 4}], "name" : ""}, {"primitives" : [{"attributes" : {"POSITION" : 13, "NORMAL" : 14}, "indices" : 12, "material" : 6, "mode" : 4}], "name" : ""}, {"primitives" : [{"attributes" : {"POSITION" : 16, "NORMAL" : 17}, "indices" : 15, "material" : 7, "mode" : 4}], "name" : ""}, {"primitives" : [{"attributes" : {"POSITION" : 19, "NORMAL" : 20}, "indices" : 18, "material" : 8, "mode" : 4}], "name" : ""}, {"primitives" : [{"attributes" : {"POSITION" : 22, "NORMAL" : 23}, "indices" : 21, "material" : 9, "mode" : 4}], "name" : ""}, {"primitives" : [{"attributes" : {"POSITION" : 25, "NORMAL" : 26}, "indices" : 24, "material" : 10, "mode" : 4}], "name" : ""}, {"primitives" : [{"attributes" : {"POSITION" : 27}, "material" : 11, "mode" : 3}], "name" : ""}, {"primitives" : [{"attributes" : {"POSITION" : 29, "NORMAL" : 30}, "indices" : 28, "material" : 12, "mode" : 4}], "name" : ""}], "nodes" : [{"camera" : 0, "matrix" : [1, 0, 0, 0, 0, 1, 0, 0, 0, 0, 1, 0, 1122.0514233333124, 1388.16675079698, 1160.6788149341658, 1], "name" : "Default Camera"}, {"mesh" : 0, "name" : "PolyLine"}, {"children" : [1], "name" : "0"}, {"mesh" : 1, "name" : "3D Solid"}, {"mesh" : 2, "name" : "PolyLine"}, {"mesh" : 3, "name" : "PolyLine"}, {"mesh" : 4, "name" : "3D Solid"}, {"mesh" : 5, "name" : "3D Solid"}, {"mesh" : 6, "name" : "3D Solid"}, {"mesh" : 7, "name" : "3D Solid"}, {"mesh" : 8, "name" : "3D Solid"}, {"mesh" : 9, "name" : "3D Solid"}, {"mesh" : 10, "name" : "3D Solid"}, {"mesh" : 11, "name" : "PolyLine"}, {"mesh" : 12, "name" : "3D Solid"}, {"children" : [3, 4, 5, 6, 7, 8, 9, 10, 11, 12, 13, 14], "name" : "3D"}], "scene" : 0, "scenes" : [{"nodes" : [0, 2, 15]}]}