# Blender v2.82 (sub 7) OBJ File: ''
# www.blender.org
mtllib paper and boxes obj.mtl
o papers_and_boxes_Mesh
v -0.772902 -0.022019 -0.865991
v -0.501839 -0.022019 -0.691454
v -0.540826 -0.022019 -1.226415
v -0.269763 -0.022019 -1.051879
v -0.950484 -0.022019 -0.216512
v -0.795123 -0.022019 0.065979
v -0.574864 -0.022019 -0.423091
v -0.419503 -0.022019 -0.140601
v -0.489660 -0.022004 0.852989
v -0.383015 -0.022004 1.157233
v -0.085114 -0.022004 0.711186
v 0.021531 -0.022004 1.015430
v 0.257459 -0.021172 -1.033020
v 0.240969 -0.021172 -0.711048
v 0.685576 -0.021172 -1.011094
v 0.669087 -0.021172 -0.689122
v 0.111235 -0.022019 -0.463090
v -0.142094 -0.022019 -0.263686
v 0.376378 -0.022019 -0.126246
v 0.123049 -0.022019 0.073159
v 0.620510 -0.022019 0.229383
v 0.548584 -0.022019 0.543652
v 1.038384 -0.022019 0.325022
v 0.966457 -0.022019 0.639290
v 0.070893 -0.022019 -0.881873
v 0.236203 -0.022019 -0.605087
v 0.438929 -0.022019 -1.101681
v 0.604238 -0.022019 -0.824895
v 0.117615 -0.019688 -0.507959
v 0.063947 -0.019688 -0.190064
v 0.540312 -0.019688 -0.436597
v 0.486644 -0.019688 -0.118702
v -0.463894 -0.022019 0.920187
v -0.155415 -0.022019 1.013883
v -0.339310 -0.022019 0.510011
v -0.030831 -0.022019 0.603707
v -0.137394 -0.023424 -0.140111
v -0.144729 0.106989 -0.138953
v -0.140434 0.228663 -0.138691
v -0.251865 -0.023424 -0.079426
v -0.254713 0.108594 -0.073947
v -0.251216 0.220993 -0.070292
v -0.366153 -0.023355 -0.018659
v -0.347576 0.109909 -0.025840
v -0.346729 0.236514 -0.022822
v -0.302182 -0.022131 0.098001
v -0.286876 0.099661 0.093428
v -0.302965 0.220917 0.086831
v -0.245444 -0.023674 0.213459
v -0.242517 0.091187 0.202721
v -0.255705 0.219397 0.188990
v -0.123070 -0.018321 0.141716
v -0.128080 0.104587 0.137634
v -0.144717 0.213092 0.133286
v -0.025639 -0.023772 0.096796
v -0.028435 0.099007 0.088168
v -0.036023 0.229744 0.082012
v -0.077107 -0.023094 -0.025328
v -0.088994 0.100715 -0.023475
v -0.081251 0.226841 -0.025887
v -0.184457 0.216146 0.030693
v -0.190960 -0.022059 0.034858
v 0.286123 -0.023424 0.076477
v 0.280448 0.106989 0.071090
v 0.281486 0.229752 0.064033
v 0.165725 -0.023424 0.028619
v 0.159409 0.108659 0.026513
v 0.156317 0.223332 0.018789
v 0.045377 -0.023365 -0.019217
v 0.062191 0.110070 -0.017674
v 0.059428 0.237604 -0.019746
v -0.002449 -0.022023 0.100286
v 0.006784 0.104241 0.096462
v -0.001720 0.231517 0.098287
v -0.053811 -0.023690 0.214309
v -0.048934 0.098521 0.212190
v -0.049997 0.233413 0.220221
v 0.080739 -0.018321 0.269722
v 0.080204 0.104711 0.258946
v 0.068179 0.220403 0.253423
v 0.178111 -0.023772 0.315114
v 0.182867 0.099007 0.307348
v 0.182204 0.230313 0.297342
v 0.237770 -0.023094 0.196775
v 0.228556 0.100625 0.186606
v 0.232733 0.229480 0.181432
v 0.117202 0.226359 0.139360
v 0.118098 -0.022059 0.148320
v -0.068816 -0.024508 0.694035
v -0.067533 0.215782 0.683860
v -0.067018 0.451785 0.691427
v -0.110479 -0.024508 0.457752
v -0.116128 0.219671 0.451056
v -0.111236 0.438124 0.440859
v -0.152126 -0.024398 0.221569
v -0.138384 0.222561 0.250002
v -0.137912 0.459350 0.243285
v -0.388001 -0.022806 0.264993
v -0.378199 0.215794 0.280776
v -0.386071 0.451980 0.263005
v -0.624415 -0.024337 0.305413
v -0.622192 0.215742 0.309359
v -0.624706 0.455347 0.304796
v -0.574098 -0.016033 0.560890
v -0.569181 0.219851 0.562769
v -0.572208 0.435961 0.536898
v -0.549936 -0.025152 0.755883
v -0.540298 0.205245 0.765830
v -0.541380 0.455347 0.777361
v -0.305422 -0.023895 0.734821
v -0.300874 0.204941 0.715047
v -0.304499 0.454015 0.735226
v -0.345226 0.452790 0.498997
v -0.346225 -0.022986 0.501351
v 0.474118 -0.182928 1.239228
v 0.347322 -0.182928 1.535641
v 0.868250 -0.182928 1.407826
v 0.741454 -0.182928 1.704239
vt 0.384945 0.188147
vt 0.548756 0.188147
vt 0.548756 0.306010
vt 0.384945 0.306010
vt 0.001743 0.092654
vt 0.165555 0.092654
vt 0.165555 0.210518
vt 0.001743 0.210518
vt 0.001743 0.348396
vt 0.165555 0.348396
vt 0.165555 0.466259
vt 0.001743 0.466259
vt 0.559217 0.316018
vt 0.723029 0.316018
vt 0.723029 0.433881
vt 0.559217 0.433881
vt 0.497594 0.811998
vt 0.497594 0.631953
vt 0.620790 0.631953
vt 0.620790 0.811998
vt 0.176016 0.348396
vt 0.374484 0.348396
vt 0.374484 0.466259
vt 0.176016 0.466259
vt 0.631251 0.811998
vt 0.631251 0.631953
vt 0.754448 0.631953
vt 0.754448 0.811998
vt 0.384945 0.316018
vt 0.548756 0.316018
vt 0.548756 0.433881
vt 0.384945 0.433881
vt 0.559217 0.188147
vt 0.723029 0.188147
vt 0.723029 0.306010
vt 0.559217 0.306010
vt 0.435191 0.727387
vt 0.435985 0.775069
vt 0.387816 0.773407
vt 0.386315 0.726283
vt 0.484021 0.728490
vt 0.475406 0.776423
vt 0.435061 0.819985
vt 0.385375 0.817293
vt 0.475587 0.822181
vt 0.963803 0.345869
vt 0.915230 0.349257
vt 0.914032 0.277161
vt 0.963803 0.277161
vt 0.963803 0.412247
vt 0.918103 0.412247
vt 0.867146 0.346276
vt 0.867146 0.277161
vt 0.867146 0.412247
vt 0.430666 0.996755
vt 0.429618 0.949904
vt 0.479835 0.952927
vt 0.484476 0.994668
vt 0.390004 0.998332
vt 0.387508 0.953613
vt 0.432974 0.905935
vt 0.479715 0.905944
vt 0.387304 0.905927
vt 0.867146 0.468874
vt 0.915030 0.469641
vt 0.913856 0.516507
vt 0.867146 0.516507
vt 0.867146 0.422254
vt 0.917111 0.422254
vt 0.963703 0.471394
vt 0.963703 0.516507
vt 0.963703 0.422254
vt 0.429733 0.865715
vt 0.384945 0.863576
vt 0.479238 0.865089
vt 0.433691 0.632870
vt 0.436253 0.680668
vt 0.387675 0.679492
vt 0.393306 0.631953
vt 0.487133 0.634083
vt 0.484500 0.680453
vt 0.537748 0.129973
vt 0.587292 0.130194
vt 0.584005 0.176263
vt 0.535119 0.176305
vt 0.540376 0.083657
vt 0.590432 0.088696
vt 0.634346 0.130419
vt 0.629928 0.178140
vt 0.637806 0.093050
vt 0.176826 0.159791
vt 0.227352 0.161679
vt 0.230623 0.207299
vt 0.177659 0.206947
vt 0.176016 0.113971
vt 0.224130 0.114673
vt 0.278892 0.158976
vt 0.280710 0.207635
vt 0.277098 0.110966
vt 0.898566 0.841344
vt 0.948227 0.843852
vt 0.944399 0.894448
vt 0.898566 0.894448
vt 0.898566 0.802070
vt 0.945202 0.802070
vt 0.995025 0.848212
vt 0.995025 0.894448
vt 0.995025 0.802070
vt 0.825967 0.950892
vt 0.873571 0.950955
vt 0.872789 0.998332
vt 0.825967 0.998332
vt 0.825967 0.904455
vt 0.875952 0.904455
vt 0.922939 0.951524
vt 0.922939 0.998332
vt 0.922939 0.904455
vt 0.321893 0.208901
vt 0.325595 0.161894
vt 0.374022 0.163902
vt 0.374484 0.210518
vt 0.324908 0.116404
vt 0.373167 0.117551
vt 0.896436 0.528758
vt 0.900271 0.574953
vt 0.851057 0.574657
vt 0.855504 0.526514
vt 0.951832 0.529431
vt 0.950767 0.575023
vt 0.900284 0.621945
vt 0.850880 0.621944
vt 0.949671 0.621945
vt 0.388443 0.529848
vt 0.480170 0.530659
vt 0.475096 0.615816
vt 0.384945 0.615835
vt 0.391940 0.443888
vt 0.484934 0.451930
vt 0.568838 0.530720
vt 0.563382 0.621945
vt 0.573104 0.459380
vt 0.097455 0.651195
vt 0.095430 0.738083
vt 0.004868 0.741534
vt 0.006226 0.650929
vt 0.188699 0.651461
vt 0.189500 0.737708
vt 0.098255 0.825499
vt 0.003649 0.827430
vt 0.190474 0.823617
vt 0.190254 0.556813
vt 0.283448 0.557353
vt 0.279286 0.653278
vt 0.191426 0.485436
vt 0.279232 0.482695
vt 0.371979 0.568487
vt 0.369524 0.654947
vt 0.374484 0.480238
vt 0.590557 0.822006
vt 0.591480 0.906276
vt 0.497594 0.907663
vt 0.497594 0.822006
vt 0.681849 0.822006
vt 0.681849 0.909264
vt 0.590632 0.998332
vt 0.497594 0.997540
vt 0.681849 0.998332
vt 0.002813 0.899970
vt 0.095909 0.908451
vt 0.093617 0.995726
vt 0.001743 0.992730
vt 0.187844 0.910081
vt 0.185159 0.998332
vt 0.097893 0.563268
vt 0.098456 0.477000
vt 0.006662 0.563611
vt 0.007098 0.476266
vt 0.212910 0.880469
vt 0.374484 0.880469
vt 0.374484 0.998332
vt 0.212910 0.998332
vn 0.0000 1.0000 0.0000
vn -0.4768 0.0125 -0.8789
vn -0.4803 0.0226 -0.8768
vn -0.5031 0.0174 -0.8641
vn -0.4889 0.0028 -0.8724
vn -0.4645 0.0224 -0.8853
vn -0.4569 0.0280 -0.8891
vn -0.4835 0.0327 -0.8747
vn -0.5172 0.0320 -0.8553
vn -0.4495 0.0335 -0.8927
vn -0.8904 0.1172 0.4399
vn -0.9060 0.0273 0.4225
vn -0.8969 0.0445 0.4401
vn -0.8734 0.1372 0.4672
vn -0.9062 0.0968 0.4116
vn -0.9145 0.0102 0.4046
vn -0.9137 -0.0624 0.4015
vn -0.9114 -0.0484 0.4086
vn -0.9157 -0.0764 0.3944
vn 0.4648 0.0598 0.8834
vn 0.4565 0.0821 0.8859
vn 0.4811 0.0920 0.8718
vn 0.4954 0.0590 0.8666
vn 0.4339 0.0603 0.8989
vn 0.4316 0.0721 0.8992
vn 0.4480 0.1042 0.8879
vn 0.4662 0.1248 0.8758
vn 0.4295 0.0837 0.8992
vn 0.8964 0.0569 -0.4396
vn 0.8973 0.0133 -0.4412
vn 0.9013 0.0132 -0.4330
vn 0.9006 0.0403 -0.4327
vn 0.8917 0.0733 -0.4467
vn 0.8933 0.0132 -0.4493
vn 0.8966 -0.0305 -0.4417
vn 0.9013 -0.0138 -0.4329
vn 0.8915 -0.0472 -0.4505
vn 0.0346 0.9981 0.0504
vn 0.0035 0.9993 0.0367
vn -0.0776 0.9956 0.0523
vn -0.0507 0.9969 0.0605
vn 0.1196 0.9920 0.0399
vn 0.0845 0.9962 0.0208
vn -0.0276 0.9994 0.0230
vn -0.1046 0.9935 0.0441
vn 0.0493 0.9988 0.0017
vn 0.0006 -0.9999 0.0128
vn 0.0014 -0.9999 0.0105
vn -0.0104 -0.9998 0.0171
vn -0.0203 -0.9994 0.0265
vn 0.0215 -0.9998 -0.0008
vn 0.0132 -0.9999 0.0038
vn 0.0021 -1.0000 0.0081
vn -0.0005 -1.0000 0.0077
vn 0.0048 -1.0000 0.0086
vn 0.3745 -0.0129 -0.9271
vn 0.3700 -0.0281 -0.9286
vn 0.3503 -0.0330 -0.9360
vn 0.3575 -0.0103 -0.9339
vn 0.3917 -0.0153 -0.9200
vn 0.3900 -0.0223 -0.9206
vn 0.3659 -0.0424 -0.9297
vn 0.3431 -0.0554 -0.9376
vn 0.3883 -0.0294 -0.9211
vn -0.9095 0.0642 -0.4107
vn -0.9081 0.0174 -0.4185
vn -0.9043 0.0236 -0.4262
vn -0.9121 0.0874 -0.4006
vn -0.9063 0.0410 -0.4207
vn -0.9117 0.0110 -0.4107
vn -0.9046 -0.0295 -0.4252
vn -0.8923 -0.0401 -0.4497
vn -0.9161 -0.0191 -0.4004
vn -0.3912 0.0650 0.9180
vn -0.3712 0.0355 0.9279
vn -0.3359 0.0148 0.9418
vn -0.3621 0.0544 0.9306
vn -0.4199 0.0754 0.9044
vn -0.4058 0.0562 0.9122
vn -0.3507 0.0060 0.9365
vn -0.3088 -0.0249 0.9508
vn -0.3916 0.0370 0.9194
vn 0.9155 0.0613 0.3977
vn 0.9192 0.0334 0.3923
vn 0.9206 0.0271 0.3896
vn 0.9145 0.0447 0.4022
vn 0.9164 0.0785 0.3925
vn 0.9178 0.0396 0.3951
vn 0.9221 0.0052 0.3868
vn 0.9263 0.0095 0.3766
vn 0.9178 0.0007 0.3971
vn 0.0223 0.9997 0.0126
vn 0.0131 0.9998 0.0170
vn -0.0434 0.9990 -0.0123
vn -0.0310 0.9993 -0.0225
vn 0.0755 0.9960 0.0475
vn 0.0696 0.9965 0.0462
vn 0.0039 0.9998 0.0216
vn -0.0558 0.9984 -0.0017
vn 0.0637 0.9970 0.0448
vn -0.0098 -0.9999 0.0084
vn -0.0074 -0.9999 0.0078
vn -0.0197 -0.9998 0.0031
vn -0.0333 -0.9994 0.0017
vn 0.0138 -0.9998 0.0151
vn 0.0049 -0.9999 0.0123
vn -0.0052 -1.0000 0.0071
vn -0.0062 -1.0000 0.0046
vn -0.0042 -0.9999 0.0096
vn 0.9862 -0.0027 -0.1655
vn 0.9869 -0.0091 -0.1612
vn 0.9819 -0.0059 -0.1892
vn 0.9819 0.0019 -0.1893
vn 0.9899 -0.0074 -0.1418
vn 0.9911 -0.0121 -0.1326
vn 0.9876 -0.0154 -0.1565
vn 0.9818 -0.0140 -0.1894
vn 0.9922 -0.0168 -0.1234
vn -0.1487 0.0703 -0.9864
vn -0.1363 0.0094 -0.9906
vn -0.1287 0.0217 -0.9914
vn -0.1548 0.0966 -0.9832
vn -0.1422 0.0443 -0.9888
vn -0.1438 -0.0030 -0.9896
vn -0.1231 -0.0513 -0.9911
vn -0.1016 -0.0534 -0.9934
vn -0.1449 -0.0500 -0.9882
vn -0.9859 0.0199 0.1663
vn -0.9855 0.0094 0.1695
vn -0.9786 0.0073 0.2055
vn -0.9800 0.0123 0.1987
vn -0.9907 0.0279 0.1333
vn -0.9910 0.0113 0.1333
vn -0.9849 -0.0012 0.1731
vn -0.9772 0.0023 0.2124
vn -0.9910 -0.0046 0.1335
vn 0.1479 0.0393 0.9882
vn 0.1612 -0.0089 0.9869
vn 0.1689 -0.0217 0.9854
vn 0.1468 0.0166 0.9890
vn 0.1491 0.0618 0.9869
vn 0.1534 0.0037 0.9882
vn 0.1740 -0.0574 0.9831
vn 0.1909 -0.0604 0.9797
vn 0.1572 -0.0545 0.9861
vn 0.0234 0.9997 0.0067
vn -0.0041 1.0000 0.0057
vn -0.0066 0.9994 -0.0353
vn 0.0276 0.9990 -0.0347
vn 0.0192 0.9987 0.0481
vn -0.0016 0.9989 0.0467
vn -0.0315 0.9995 0.0046
vn -0.0407 0.9985 -0.0360
vn -0.0222 0.9987 0.0452
vn -0.0135 -0.9999 -0.0029
vn -0.0096 -1.0000 -0.0016
vn -0.0115 -0.9999 -0.0122
vn -0.0183 -0.9996 -0.0231
vn -0.0088 -0.9998 0.0174
vn -0.0074 -0.9999 0.0091
vn -0.0056 -1.0000 -0.0003
vn -0.0047 -1.0000 -0.0011
vn -0.0065 -1.0000 0.0005
usemtl Material.001
s 1
f 3/1/1 1/2/1 2/3/1 4/4/1
f 7/5/1 5/6/1 6/7/1 8/8/1
f 11/9/1 9/10/1 10/11/1 12/12/1
f 15/13/1 13/14/1 14/15/1 16/16/1
f 19/17/1 17/18/1 18/19/1 20/20/1
f 23/21/1 21/22/1 22/23/1 24/24/1
f 27/25/1 25/26/1 26/27/1 28/28/1
f 31/29/1 29/30/1 30/31/1 32/32/1
f 35/33/1 33/34/1 34/35/1 36/36/1
f 40/37/2 41/38/3 38/39/4 37/40/5
f 43/41/6 44/42/7 41/38/3 40/37/2
f 41/38/3 42/43/8 39/44/9 38/39/4
f 44/42/7 45/45/10 42/43/8 41/38/3
f 46/46/11 47/47/12 44/48/13 43/49/14
f 49/50/15 50/51/16 47/47/12 46/46/11
f 47/47/12 48/52/17 45/53/18 44/48/13
f 50/51/16 51/54/19 48/52/17 47/47/12
f 52/55/20 53/56/21 50/57/22 49/58/23
f 55/59/24 56/60/25 53/56/21 52/55/20
f 53/56/21 54/61/26 51/62/27 50/57/22
f 56/60/25 57/63/28 54/61/26 53/56/21
f 58/64/29 59/65/30 56/66/31 55/67/32
f 37/68/33 38/69/34 59/65/30 58/64/29
f 59/65/30 60/70/35 57/71/36 56/66/31
f 38/69/34 39/72/37 60/70/35 59/65/30
f 42/43/38 61/73/39 60/74/40 39/44/41
f 45/45/42 48/75/43 61/73/39 42/43/38
f 61/73/39 54/61/44 57/63/45 60/74/40
f 48/75/43 51/62/46 54/61/44 61/73/39
f 52/76/47 62/77/48 58/78/49 55/79/50
f 49/80/51 46/81/52 62/77/48 52/76/47
f 62/77/48 40/37/53 37/40/54 58/78/49
f 46/81/52 43/41/55 40/37/53 62/77/48
f 66/82/56 67/83/57 64/84/58 63/85/59
f 69/86/60 70/87/61 67/83/57 66/82/56
f 67/83/57 68/88/62 65/89/63 64/84/58
f 70/87/61 71/90/64 68/88/62 67/83/57
f 72/91/65 73/92/66 70/93/67 69/94/68
f 75/95/69 76/96/70 73/92/66 72/91/65
f 73/92/66 74/97/71 71/98/72 70/93/67
f 76/96/70 77/99/73 74/97/71 73/92/66
f 78/100/74 79/101/75 76/102/76 75/103/77
f 81/104/78 82/105/79 79/101/75 78/100/74
f 79/101/75 80/106/80 77/107/81 76/102/76
f 82/105/79 83/108/82 80/106/80 79/101/75
f 84/109/83 85/110/84 82/111/85 81/112/86
f 63/113/87 64/114/88 85/110/84 84/109/83
f 85/110/84 86/115/89 83/116/90 82/111/85
f 64/114/88 65/117/91 86/115/89 85/110/84
f 68/118/92 87/119/93 86/120/94 65/121/95
f 71/98/96 74/97/97 87/119/93 68/118/92
f 87/119/93 80/122/98 83/123/99 86/120/94
f 74/97/97 77/99/100 80/122/98 87/119/93
f 78/124/101 88/125/102 84/126/103 81/127/104
f 75/128/105 72/129/106 88/125/102 78/124/101
f 88/125/102 66/130/107 63/131/108 84/126/103
f 72/129/106 69/132/109 66/130/107 88/125/102
f 92/133/110 93/134/111 90/135/112 89/136/113
f 95/137/114 96/138/115 93/134/111 92/133/110
f 93/134/111 94/139/116 91/140/117 90/135/112
f 96/138/115 97/141/118 94/139/116 93/134/111
f 98/142/119 99/143/120 96/144/121 95/145/122
f 101/146/123 102/147/124 99/143/120 98/142/119
f 99/143/120 100/148/125 97/149/126 96/144/121
f 102/147/124 103/150/127 100/148/125 99/143/120
f 104/151/128 105/152/129 102/153/130 101/146/131
f 107/154/132 108/155/133 105/152/129 104/151/128
f 105/152/129 106/156/134 103/157/135 102/153/130
f 108/155/133 109/158/136 106/156/134 105/152/129
f 110/159/137 111/160/138 108/161/139 107/162/140
f 89/163/141 90/164/142 111/160/138 110/159/137
f 111/160/138 112/165/143 109/166/144 108/161/139
f 90/164/142 91/167/145 112/165/143 111/160/138
f 94/168/146 113/169/147 112/170/148 91/171/149
f 97/149/150 100/148/151 113/169/147 94/168/146
f 113/169/147 106/172/152 109/173/153 112/170/148
f 100/148/151 103/150/154 106/172/152 113/169/147
f 104/151/155 114/174/156 110/175/157 107/154/158
f 101/146/159 98/142/160 114/174/156 104/151/155
f 114/174/156 92/176/161 89/177/162 110/175/157
f 98/142/160 95/145/163 92/176/161 114/174/156
f 117/178/1 115/179/1 116/180/1 118/181/1
